<?xml version="1.0" standalone="no"?>
<!DOCTYPE svg PUBLIC "-//W3C//DTD SVG 20010904//EN"
 "http://www.w3.org/TR/2001/REC-SVG-20010904/DTD/svg10.dtd">
<svg version="1.0" xmlns="http://www.w3.org/2000/svg"
 width="1208.000000pt" height="1164.000000pt" viewBox="0 0 1208.000000 1164.000000"
 preserveAspectRatio="xMidYMid meet">

<g transform="translate(0.000000,1164.000000) scale(0.100000,-0.100000)"
fill="#FFFFFF" stroke="none">
<path d="M9205 11533 c-529 -33 -1019 -219 -1430 -541 -155 -122 -377 -358
-496 -527 -703 -1001 -584 -2359 282 -3224 891 -888 2280 -987 3287 -233 675
504 1060 1337 1003 2165 -45 637 -292 1180 -740 1627 -330 330 -713 547 -1161
660 -242 61 -514 88 -745 73z m262 -713 c1156 -88 1935 -1218 1602 -2323 -272
-898 -1205 -1446 -2117 -1241 -770 173 -1331 805 -1411 1594 -27 259 9 532
103 793 236 652 851 1119 1547 1176 138 12 133 12 276 1z"/>
<path d="M9560 9737 c-319 -85 -517 -143 -555 -162 -81 -41 -184 -144 -223
-225 -18 -36 -52 -141 -76 -235 -25 -93 -83 -316 -130 -494 -48 -178 -86 -338
-86 -356 0 -41 31 -80 73 -94 28 -10 76 1 387 85 195 52 398 106 450 120 261
69 333 103 423 203 62 70 97 147 141 311 19 74 78 294 131 488 52 195 95 371
95 392 0 26 -8 48 -23 65 -43 51 -66 47 -607 -98z"/>
<path d="M665 10585 c-251 -55 -447 -243 -522 -500 -17 -57 -18 -276 -21
-4050 -2 -2826 0 -4014 8 -4073 21 -159 81 -282 195 -397 124 -125 -38 -59
1975 -810 1196 -447 1388 -517 1444 -532 90 -24 242 -21 341 6 60 17 360 163
1190 580 611 307 1331 669 1601 805 l491 246 1429 -536 c786 -294 1462 -544
1503 -555 313 -81 649 80 786 376 70 151 66 -27 63 2480 l-3 2260 -26 56 c-37
79 -90 133 -167 171 -61 30 -75 33 -157 33 -77 -1 -98 -5 -146 -28 -96 -47
-167 -132 -195 -235 -13 -50 -15 -129 -9 -607 10 -1008 27 -3807 22 -3811 -4
-4 -1958 722 -2065 766 -12 6 -102 39 -200 75 -97 37 -199 75 -227 86 -27 11
-97 37 -155 58 l-105 38 -5 1839 -5 1839 -23 58 c-28 70 -107 153 -173 185
-179 86 -388 13 -476 -166 l-28 -57 -3 -1862 -2 -1863 -1353 -677 c-743 -373
-1358 -679 -1364 -681 -10 -3 -13 780 -12 3890 l0 3893 952 474 c883 440 956
478 1005 527 76 76 96 127 96 244 1 84 -2 102 -27 155 -67 144 -229 226 -383
195 -56 -11 -624 -292 -1680 -831 -171 -88 -316 -159 -323 -159 -6 0 -197 69
-424 154 -227 85 -781 292 -1232 461 -1212 454 -1244 466 -1315 481 -80 17
-195 17 -275 -1z m247 -736 c29 -11 100 -37 158 -59 58 -21 116 -43 130 -49
14 -5 401 -150 860 -322 1235 -461 1492 -557 1496 -562 2 -2 3 -1761 2 -3909
l-3 -3906 -675 249 c-708 260 -826 304 -1135 418 -104 38 -337 124 -517 190
-181 66 -344 127 -363 135 l-35 15 0 3910 c0 3457 2 3911 15 3911 8 0 38 -9
67 -21z"/>
</g>
</svg>
